<?xml version="1.0" encoding="UTF-8" standalone="no"?>
<!-- Created with Inkscape (http://www.inkscape.org/) -->

<svg
   xmlns:dc="http://purl.org/dc/elements/1.1/"
   xmlns:cc="http://creativecommons.org/ns#"
   xmlns:rdf="http://www.w3.org/1999/02/22-rdf-syntax-ns#"
   xmlns:svg="http://www.w3.org/2000/svg"
   xmlns="http://www.w3.org/2000/svg"
   xmlns:xlink="http://www.w3.org/1999/xlink"
   xmlns:sodipodi="http://sodipodi.sourceforge.net/DTD/sodipodi-0.dtd"
   xmlns:inkscape="http://www.inkscape.org/namespaces/inkscape"
   width="96"
   height="96"
   id="svg6517"
   version="1.1"
   inkscape:version="0.91 r13725"
   sodipodi:docname="icon.svg">
  <defs
     id="defs6519">
    <linearGradient
       id="Background">
      <stop
         id="stop4178"
         offset="0"
         style="stop-color:#22779e;stop-opacity:1" />
      <stop
         id="stop4180"
         offset="1"
         style="stop-color:#2991c0;stop-opacity:1" />
    </linearGradient>
    <filter
       style="color-interpolation-filters:sRGB;"
       inkscape:label="Inner Shadow"
       id="filter1121">
      <feFlood
         flood-opacity="0.59999999999999998"
         flood-color="rgb(0,0,0)"
         result="flood"
         id="feFlood1123" />
      <feComposite
         in="flood"
         in2="SourceGraphic"
         operator="out"
         result="composite1"
         id="feComposite1125" />
      <feGaussianBlur
         in="composite1"
         stdDeviation="1"
         result="blur"
         id="feGaussianBlur1127" />
      <feOffset
         dx="0"
         dy="2"
         result="offset"
         id="feOffset1129" />
      <feComposite
         in="offset"
         in2="SourceGraphic"
         operator="atop"
         result="composite2"
         id="feComposite1131" />
    </filter>
    <filter
       style="color-interpolation-filters:sRGB;"
       inkscape:label="Drop Shadow"
       id="filter950">
      <feFlood
         flood-opacity="0.25"
         flood-color="rgb(0,0,0)"
         result="flood"
         id="feFlood952" />
      <feComposite
         in="flood"
         in2="SourceGraphic"
         operator="in"
         result="composite1"
         id="feComposite954" />
      <feGaussianBlur
         in="composite1"
         stdDeviation="1"
         result="blur"
         id="feGaussianBlur956" />
      <feOffset
         dx="0"
         dy="1"
         result="offset"
         id="feOffset958" />
      <feComposite
         in="SourceGraphic"
         in2="offset"
         operator="over"
         result="composite2"
         id="feComposite960" />
    </filter>
    <clipPath
       clipPathUnits="userSpaceOnUse"
       id="clipPath873">
      <g
         transform="matrix(0,-0.66666667,0.66604479,0,-258.25992,677.00001)"
         id="g875"
         inkscape:label="Layer 1"
         style="fill:#ff00ff;fill-opacity:1;stroke:none;display:inline">
        <path
           style="fill:#ff00ff;fill-opacity:1;stroke:none;display:inline"
           d="m 46.702703,898.22775 50.594594,0 C 138.16216,898.22775 144,904.06497 144,944.92583 l 0,50.73846 c 0,40.86071 -5.83784,46.69791 -46.702703,46.69791 l -50.594594,0 C 5.8378378,1042.3622 0,1036.525 0,995.66429 L 0,944.92583 C 0,904.06497 5.8378378,898.22775 46.702703,898.22775 Z"
           id="path877"
           inkscape:connector-curvature="0"
           sodipodi:nodetypes="sssssssss" />
      </g>
    </clipPath>
    <filter
       inkscape:collect="always"
       id="filter891"
       inkscape:label="Badge Shadow">
      <feGaussianBlur
         inkscape:collect="always"
         stdDeviation="0.71999962"
         id="feGaussianBlur893" />
    </filter>
    <style
       id="style867"
       type="text/css"><![CDATA[
    .fil0 {fill:#1F1A17}
   ]]></style>
    <clipPath
       id="clipPath16">
      <path
         id="path18"
         d="m -9,-9 614,0 0,231 -614,0 0,-231 z" />
    </clipPath>
    <clipPath
       id="clipPath116">
      <path
         id="path118"
         d="m 91.7368,146.3253 -9.7039,-1.577 -8.8548,-3.8814 -7.5206,-4.7308 -7.1566,-8.7335 -4.0431,-4.282 -3.9093,-1.4409 -1.034,2.5271 1.8079,2.6096 0.4062,3.6802 1.211,-0.0488 1.3232,-1.2069 -0.3569,3.7488 -1.4667,0.9839 0.0445,1.4286 -3.4744,-1.9655 -3.1462,-3.712 -0.6559,-3.3176 1.3453,-2.6567 1.2549,-4.5133 2.5521,-1.2084 2.6847,0.1318 2.5455,1.4791 -1.698,-8.6122 1.698,-9.5825 -1.8692,-4.4246 -6.1223,-6.5965 1.0885,-3.941 2.9002,-4.5669 5.4688,-3.8486 2.9007,-0.3969 3.225,-0.1094 -2.012,-8.2601 7.3993,-3.0326 9.2188,-1.2129 3.1535,2.0619 0.2427,5.5797 3.5178,5.8224 0.2426,4.6094 8.4909,-0.6066 7.8843,0.7279 -7.8843,-4.7307 1.3343,-5.701 4.9731,-7.763 4.8521,-2.0622 3.8814,1.5769 1.577,3.1538 8.1269,6.1861 1.5769,-1.3343 12.7363,-0.485 2.5473,2.0619 0.2426,3.6391 -0.849,1.5767 -0.6066,9.8251 -4.2454,8.4909 0.7276,3.7605 2.5475,-1.3343 7.1566,-6.6716 3.5175,-0.2424 3.8815,1.5769 3.8818,2.9109 1.9406,6.3077 11.4021,-0.7277 6.914,2.6686 5.5797,5.2157 4.0028,7.5206 0.9706,8.8546 -0.8493,10.3105 -2.1832,9.2185 -2.1836,2.9112 -3.0322,0.9706 -5.3373,-5.8224 -4.8518,-1.6982 -4.2455,7.0353 -4.2454,3.8815 -2.3049,1.4556 -9.2185,7.6419 -7.3993,4.0028 -7.3993,0.6066 -8.6119,-1.4556 -7.5206,-2.7899 -5.2158,-4.2454 -4.1241,-4.9734 -4.2454,-1.2129" />
    </clipPath>
    <clipPath
       id="clipPath128">
      <path
         id="path130"
         d="m 91.7368,146.3253 -9.7039,-1.577 -8.8548,-3.8814 -7.5206,-4.7308 -7.1566,-8.7335 -4.0431,-4.282 -3.9093,-1.4409 -1.034,2.5271 1.8079,2.6096 0.4062,3.6802 1.211,-0.0488 1.3232,-1.2069 -0.3569,3.7488 -1.4667,0.9839 0.0445,1.4286 -3.4744,-1.9655 -3.1462,-3.712 -0.6559,-3.3176 1.3453,-2.6567 1.2549,-4.5133 2.5521,-1.2084 2.6847,0.1318 2.5455,1.4791 -1.698,-8.6122 1.698,-9.5825 -1.8692,-4.4246 -6.1223,-6.5965 1.0885,-3.941 2.9002,-4.5669 5.4688,-3.8486 2.9007,-0.3969 3.225,-0.1094 -2.012,-8.2601 7.3993,-3.0326 9.2188,-1.2129 3.1535,2.0619 0.2427,5.5797 3.5178,5.8224 0.2426,4.6094 8.4909,-0.6066 7.8843,0.7279 -7.8843,-4.7307 1.3343,-5.701 4.9731,-7.763 4.8521,-2.0622 3.8814,1.5769 1.577,3.1538 8.1269,6.1861 1.5769,-1.3343 12.7363,-0.485 2.5473,2.0619 0.2426,3.6391 -0.849,1.5767 -0.6066,9.8251 -4.2454,8.4909 0.7276,3.7605 2.5475,-1.3343 7.1566,-6.6716 3.5175,-0.2424 3.8815,1.5769 3.8818,2.9109 1.9406,6.3077 11.4021,-0.7277 6.914,2.6686 5.5797,5.2157 4.0028,7.5206 0.9706,8.8546 -0.8493,10.3105 -2.1832,9.2185 -2.1836,2.9112 -3.0322,0.9706 -5.3373,-5.8224 -4.8518,-1.6982 -4.2455,7.0353 -4.2454,3.8815 -2.3049,1.4556 -9.2185,7.6419 -7.3993,4.0028 -7.3993,0.6066 -8.6119,-1.4556 -7.5206,-2.7899 -5.2158,-4.2454 -4.1241,-4.9734 -4.2454,-1.2129" />
    </clipPath>
    <linearGradient
       id="linearGradient3850"
       inkscape:collect="always">
      <stop
         id="stop3852"
         offset="0"
         style="stop-color:#000000;stop-opacity:1;" />
      <stop
         id="stop3854"
         offset="1"
         style="stop-color:#000000;stop-opacity:0;" />
    </linearGradient>
    <clipPath
       clipPathUnits="userSpaceOnUse"
       id="clipPath3095">
      <path
         d="m 976.648,389.551 -842.402,0 0,839.999 842.402,0 0,-839.999"
         id="path3097"
         inkscape:connector-curvature="0" />
    </clipPath>
    <clipPath
       clipPathUnits="userSpaceOnUse"
       id="clipPath3195">
      <path
         d="m 611.836,756.738 -106.34,105.207 c -8.473,8.289 -13.617,20.102 -13.598,33.379 L 598.301,790.207 c -0.031,-13.418 5.094,-25.031 13.535,-33.469"
         id="path3197"
         inkscape:connector-curvature="0" />
    </clipPath>
    <clipPath
       clipPathUnits="userSpaceOnUse"
       id="clipPath3235">
      <path
         d="m 1095.64,1501.81 c 35.46,-35.07 70.89,-70.11 106.35,-105.17 4.4,-4.38 7.11,-10.53 7.11,-17.55 l -106.37,105.21 c 0,7 -2.71,13.11 -7.09,17.51"
         id="path3237"
         inkscape:connector-curvature="0" />
    </clipPath>
    <clipPath
       id="clipPath4591"
       clipPathUnits="userSpaceOnUse">
      <path
         inkscape:connector-curvature="0"
         d="m 1106.6009,730.43734 -0.036,21.648 c -0.01,3.50825 -2.8675,6.61375 -6.4037,6.92525 l -83.6503,7.33162 c -3.5205,0.30763 -6.3812,-2.29987 -6.3671,-5.8145 l 0.036,-21.6475 20.1171,-1.76662 -0.011,4.63775 c 0,1.83937 1.4844,3.19925 3.3262,3.0395 l 49.5274,-4.33975 c 1.8425,-0.166 3.3425,-1.78125 3.3538,-3.626 l 0.01,-4.63025 20.1,-1.7575"
         style="fill:#ff00ff;fill-opacity:1;fill-rule:nonzero;stroke:none"
         id="path4593" />
    </clipPath>
    <radialGradient
       gradientUnits="userSpaceOnUse"
       gradientTransform="matrix(-1.4333926,-2.2742838,1.1731823,-0.73941125,-174.08025,98.374394)"
       r="20.40658"
       fy="93.399292"
       fx="-26.508606"
       cy="93.399292"
       cx="-26.508606"
       id="radialGradient3856"
       xlink:href="#linearGradient3850"
       inkscape:collect="always" />
    <linearGradient
       gradientTransform="translate(-318.48033,212.32022)"
       gradientUnits="userSpaceOnUse"
       y2="993.19702"
       x2="-51.879555"
       y1="593.11615"
       x1="348.20132"
       id="linearGradient3895"
       xlink:href="#linearGradient3850"
       inkscape:collect="always" />
    <clipPath
       id="clipPath3906"
       clipPathUnits="userSpaceOnUse">
      <rect
         transform="scale(1,-1)"
         style="opacity:0.8;color:#000000;fill:#ff00ff;stroke:none;stroke-width:4;marker:none;visibility:visible;display:inline;overflow:visible;enable-background:accumulate"
         id="rect3908"
         width="1019.1371"
         height="1019.1371"
         x="357.9816"
         y="-1725.8152" />
    </clipPath>
    <clipPath
       clipPathUnits="userSpaceOnUse"
       id="clipPath3031">
      <path
         inkscape:connector-curvature="0"
         d="M 0,792 612,792 612,0 0,0 0,792 Z"
         id="path3033" />
    </clipPath>
    <clipPath
       clipPathUnits="userSpaceOnUse"
       id="clipPath4058">
      <path
         d="M 0,792 612,792 612,0 0,0 0,792 Z"
         id="path4060"
         inkscape:connector-curvature="0" />
    </clipPath>
  </defs>
  <sodipodi:namedview
     id="base"
     pagecolor="#ffffff"
     bordercolor="#666666"
     borderopacity="1.0"
     inkscape:pageopacity="0.0"
     inkscape:pageshadow="2"
     inkscape:zoom="3.2596289"
     inkscape:cx="51.121983"
     inkscape:cy="76.99536"
     inkscape:document-units="px"
     inkscape:current-layer="layer1"
     showgrid="false"
     fit-margin-top="0"
     fit-margin-left="0"
     fit-margin-right="0"
     fit-margin-bottom="0"
     inkscape:window-width="1600"
     inkscape:window-height="837"
     inkscape:window-x="-8"
     inkscape:window-y="-8"
     inkscape:window-maximized="1"
     showborder="true"
     showguides="false"
     inkscape:guide-bbox="true"
     inkscape:showpageshadow="false"
     inkscape:snap-global="false"
     inkscape:snap-bbox="true"
     inkscape:bbox-paths="true"
     inkscape:bbox-nodes="true"
     inkscape:snap-bbox-edge-midpoints="true"
     inkscape:snap-bbox-midpoints="true"
     inkscape:object-paths="true"
     inkscape:snap-intersection-paths="true"
     inkscape:object-nodes="true"
     inkscape:snap-smooth-nodes="true"
     inkscape:snap-midpoints="true"
     inkscape:snap-object-midpoints="true"
     inkscape:snap-center="true">
    <inkscape:grid
       type="xygrid"
       id="grid821" />
    <sodipodi:guide
       orientation="1,0"
       position="16,48"
       id="guide823" />
    <sodipodi:guide
       orientation="0,1"
       position="64,80"
       id="guide825" />
    <sodipodi:guide
       orientation="1,0"
       position="80,40"
       id="guide827" />
    <sodipodi:guide
       orientation="0,1"
       position="64,16"
       id="guide829" />
  </sodipodi:namedview>
  <metadata
     id="metadata6522">
    <rdf:RDF>
      <cc:Work
         rdf:about="">
        <dc:format>image/svg+xml</dc:format>
        <dc:type
           rdf:resource="http://purl.org/dc/dcmitype/StillImage" />
        <dc:title />
      </cc:Work>
    </rdf:RDF>
  </metadata>
  <g
     inkscape:label="BACKGROUND"
     inkscape:groupmode="layer"
     id="layer1"
     transform="translate(268,-635.29076)"
     style="display:inline">
    <path
       style="fill:#1a1918;fill-opacity:1;stroke:none;display:inline;filter:url(#filter1121)"
       d="m -268,700.15563 0,-33.72973 c 0,-27.24324 3.88785,-31.13513 31.10302,-31.13513 l 33.79408,0 c 27.21507,0 31.1029,3.89189 31.1029,31.13513 l 0,33.72973 c 0,27.24325 -3.88783,31.13514 -31.1029,31.13514 l -33.79408,0 C -264.11215,731.29077 -268,727.39888 -268,700.15563 Z"
       id="path6455"
       inkscape:connector-curvature="0"
       sodipodi:nodetypes="sssssssss" />
    <path
       style="fill:#1a19ff;opacity:0;fill-opacity:0"
       d="M 20.917164,95.548329 C 7.5147881,94.644226 2.7845472,90.855558 0.86959613,79.491311 0.40657597,76.743525 0.34933191,73.298351 0.34933191,48.17974 c 0,-29.637891 0.0381078,-30.609058 1.40012339,-35.681766 C 3.4334781,6.2259775 7.1059458,2.8839329 13.957159,1.3886344 19.069443,0.27286247 24.272401,0.11261181 51.121983,0.24396111 73.48493,0.35336163 77.108551,0.43535784 79.652838,0.8895647 c 9.53896,1.7028976 13.325713,5.092285 15.052606,13.4730543 1.050472,5.09803 1.27035,12.506627 1.118124,37.674125 -0.09461,15.642225 -0.265107,24.591578 -0.499284,26.207768 -1.816114,12.533995 -6.414481,16.339035 -20.944586,17.331157 -5.176964,0.353488 -48.142903,0.331513 -53.462534,-0.02733 l 0,-6e-6 z"
       id="path4338"
       inkscape:connector-curvature="0"
       transform="translate(-268,635.29076)" />
    <path
       style="opacity:0;fill:#de8787;fill-opacity:0"
       d="M 20.917164,95.548329 C 7.5147881,94.644226 2.7845472,90.855558 0.86959613,79.491311 0.40657597,76.743525 0.34933191,73.298351 0.34933191,48.17974 c 0,-29.637891 0.0381078,-30.609058 1.40012339,-35.681766 C 3.4334781,6.2259775 7.1059458,2.8839329 13.957159,1.3886344 19.069443,0.27286247 24.272401,0.11261181 51.121983,0.24396111 73.48493,0.35336163 77.108551,0.43535784 79.652838,0.8895647 c 9.53896,1.7028976 13.325713,5.092285 15.052606,13.4730543 1.050472,5.09803 1.27035,12.506627 1.118124,37.674125 -0.09461,15.642225 -0.265107,24.591578 -0.499284,26.207768 -1.816114,12.533995 -6.414481,16.339035 -20.944586,17.331157 -5.176964,0.353488 -48.142903,0.331513 -53.462534,-0.02733 l 0,-6e-6 z"
       id="path5140"
       inkscape:connector-curvature="0"
       transform="translate(-268,635.29076)" />
    <path
       style="opacity:0;fill:#de8787;fill-opacity:0"
       d="M 20.917164,95.548329 C 7.5147881,94.644226 2.7845472,90.855558 0.86959613,79.491311 0.40657597,76.743525 0.34933191,73.298351 0.34933191,48.17974 c 0,-29.637891 0.0381078,-30.609058 1.40012339,-35.681766 C 3.4334781,6.2259775 7.1059458,2.8839329 13.957159,1.3886344 19.069443,0.27286247 24.272401,0.11261181 51.121983,0.24396111 73.48493,0.35336163 77.108551,0.43535784 79.652838,0.8895647 c 9.53896,1.7028976 13.325713,5.092285 15.052606,13.4730543 1.050472,5.09803 1.27035,12.506627 1.118124,37.674125 -0.09461,15.642225 -0.265107,24.591578 -0.499284,26.207768 -1.816114,12.533995 -6.414481,16.339035 -20.944586,17.331157 -5.176964,0.353488 -48.142903,0.331513 -53.462534,-0.02733 l 0,-6e-6 z"
       id="path5142"
       inkscape:connector-curvature="0"
       transform="translate(-268,635.29076)" />
    <path
       style="opacity:0;fill:#de8787;fill-opacity:0"
       d="M 20.917164,95.548329 C 7.5147881,94.644226 2.7845472,90.855558 0.86959613,79.491311 0.40657597,76.743525 0.34933191,73.298351 0.34933191,48.17974 c 0,-29.637891 0.0381078,-30.609058 1.40012339,-35.681766 C 3.4334781,6.2259775 7.1059458,2.8839329 13.957159,1.3886344 19.069443,0.27286247 24.272401,0.11261181 51.121983,0.24396111 73.48493,0.35336163 77.108551,0.43535784 79.652838,0.8895647 c 9.53896,1.7028976 13.325713,5.092285 15.052606,13.4730543 1.050472,5.09803 1.27035,12.506627 1.118124,37.674125 -0.09461,15.642225 -0.265107,24.591578 -0.499284,26.207768 -1.816114,12.533995 -6.414481,16.339035 -20.944586,17.331157 -5.176964,0.353488 -48.142903,0.331513 -53.462534,-0.02733 l 0,-6e-6 z"
       id="path5144"
       inkscape:connector-curvature="0"
       transform="translate(-268,635.29076)" />
    <path
       style="opacity:0;fill:#de8787;fill-opacity:0"
       d="M 20.917164,95.548329 C 7.5147881,94.644226 2.7845472,90.855558 0.86959613,79.491311 0.40657597,76.743525 0.34933191,73.298351 0.34933191,48.17974 c 0,-29.637891 0.0381078,-30.609058 1.40012339,-35.681766 C 3.4334781,6.2259775 7.1059458,2.8839329 13.957159,1.3886344 19.069443,0.27286247 24.272401,0.11261181 51.121983,0.24396111 73.48493,0.35336163 77.108551,0.43535784 79.652838,0.8895647 c 9.53896,1.7028976 13.325713,5.092285 15.052606,13.4730543 1.050472,5.09803 1.27035,12.506627 1.118124,37.674125 -0.09461,15.642225 -0.265107,24.591578 -0.499284,26.207768 -1.816114,12.533995 -6.414481,16.339035 -20.944586,17.331157 -5.176964,0.353488 -48.142903,0.331513 -53.462534,-0.02733 l 0,-6e-6 z"
       id="path5146"
       inkscape:connector-curvature="0"
       transform="translate(-268,635.29076)" />
    <g
       id="g5863"
       transform="matrix(1.1154342,0,0,1.2665293,28.609295,-171.19657)">
      <g
         transform="matrix(0.62539845,0,0,-0.5266301,-206.47935,679.00979)"
         id="g4062">
        <path
           inkscape:connector-curvature="0"
           id="path4064"
           style="fill:#5aa0dc;fill-opacity:1;fill-rule:evenodd;stroke:none"
           d="M 0,0 C 0.24,0.215 0.479,0.43 0.717,0.648 L 1.291,0.012 C 0.857,0.004 0.428,0 0,0 M 10.798,2.787 C 10.119,2.04 9.432,1.316 8.734,0.612 6.852,0.351 4.994,0.173 3.167,0.079 2.693,0.591 2.224,1.105 1.759,1.623 3.5,3.289 5.183,5.082 6.806,6.998 8.103,5.574 9.434,4.171 10.798,2.787 m 3.218,14.164 c 1.453,-1.504 2.882,-3.007 4.261,-4.473 C 16.226,9.361 14.047,6.483 11.75,3.854 10.373,5.252 9.034,6.669 7.728,8.107 c 2.213,2.716 4.313,5.665 6.288,8.844" />
      </g>
      <g
         transform="matrix(0.62539845,0,0,-0.5266301,-213.60483,678.3474)"
         id="g4066">
        <path
           inkscape:connector-curvature="0"
           id="path4068"
           style="fill:#1a3048;fill-opacity:1;fill-rule:evenodd;stroke:none"
           d="M 0,0 0.343,0.261 0.654,-0.147 C 0.436,-0.1 0.216,-0.051 0,0" />
      </g>
      <g
         transform="matrix(0.62539845,0,0,-0.5266301,-206.5923,678.13759)"
         id="g4070">
        <path
           inkscape:connector-curvature="0"
           id="path4072"
           style="fill:#1a3048;fill-opacity:1;fill-rule:evenodd;stroke:none"
           d="m 0,0 c -0.604,-0.555 -1.216,-1.094 -1.834,-1.618 -2.271,0.085 -4.477,0.308 -6.601,0.666 -0.44,0.56 -0.879,1.126 -1.309,1.694 1.791,1.438 3.528,2.999 5.212,4.679 C -4.031,4.787 -3.521,4.159 -3.009,3.534 -2.028,2.342 -1.024,1.164 0,0" />
      </g>
      <g
         transform="matrix(0.62539845,0,0,-0.5266301,-202.79413,674.79212)"
         id="g4074">
        <path
           inkscape:connector-curvature="0"
           id="path4076"
           style="fill:#1a3048;fill-opacity:1;fill-rule:evenodd;stroke:none"
           d="m 0,0 c -1.615,-1.918 -3.295,-3.712 -5.029,-5.376 -1.005,1.142 -1.99,2.296 -2.95,3.465 -0.547,0.664 -1.085,1.333 -1.62,2.006 1.665,1.731 3.271,3.583 4.818,5.552 C -4.417,5.192 -4.049,4.741 -3.679,4.29 -2.484,2.839 -1.258,1.41 0,0" />
      </g>
      <g
         transform="matrix(0.62539845,0,0,-0.5266301,-201.66059,666.70755)"
         id="g4078">
        <path
           inkscape:connector-curvature="0"
           id="path4080"
           style="fill:#1a3048;fill-opacity:1;fill-rule:evenodd;stroke:none"
           d="m 0,0 c 1.761,-1.752 3.561,-3.577 5.341,-5.41 -1.957,-3.174 -4.037,-6.119 -6.234,-8.827 -1.196,1.342 -2.36,2.702 -3.496,4.084 -0.441,0.534 -0.875,1.072 -1.306,1.613 C -3.691,-5.894 -1.791,-3.044 0,0" />
      </g>
      <g
         transform="matrix(0.62539845,0,0,-0.5266301,-213.89802,677.64229)"
         id="g4082">
        <path
           inkscape:connector-curvature="0"
           id="path4084"
           style="fill:#151c21;fill-opacity:1;fill-rule:evenodd;stroke:none"
           d="m 0,0 c -0.403,-0.31 -0.811,-0.612 -1.222,-0.909 -2.569,0.709 -4.984,1.638 -7.209,2.782 1.58,1.079 3.123,2.248 4.629,3.506 C -2.579,3.553 -1.312,1.76 0,0" />
      </g>
      <g
         transform="matrix(0.62539845,0,0,-0.5266301,-209.95138,674.72013)"
         id="g4086">
        <path
           inkscape:connector-curvature="0"
           id="path4088"
           style="fill:#151c21;fill-opacity:1;fill-rule:evenodd;stroke:none"
           d="m 0,0 c -1.674,-1.68 -3.403,-3.236 -5.186,-4.669 -1.323,1.778 -2.599,3.588 -3.833,5.435 1.696,1.484 3.34,3.082 4.929,4.792 C -2.775,3.669 -1.41,1.817 0,0" />
      </g>
      <g
         transform="matrix(0.62539845,0,0,-0.5266301,-206.32356,671.2451)"
         id="g4090">
        <path
           inkscape:connector-curvature="0"
           id="path4092"
           style="fill:#151c21;fill-opacity:1;fill-rule:evenodd;stroke:none"
           d="m 0,0 c -1.539,-1.977 -3.14,-3.831 -4.794,-5.565 -1.419,1.832 -2.789,3.7 -4.109,5.608 1.599,1.791 3.144,3.698 4.63,5.719 C -2.9,3.802 -1.478,1.883 0,0" />
      </g>
      <g
         transform="matrix(0.62539845,0,0,-0.5266301,-205.44901,663.6007)"
         id="g4094">
        <path
           inkscape:connector-curvature="0"
           id="path4096"
           style="fill:#151c21;fill-opacity:1;fill-rule:evenodd;stroke:none"
           d="m 0,0 c 1.594,-1.511 3.304,-3.172 5.068,-4.918 -1.754,-3.004 -3.612,-5.813 -5.571,-8.425 -1.481,1.9 -2.907,3.838 -4.282,5.817 C -3.113,-5.163 -1.515,-2.653 0,0" />
      </g>
      <g
         transform="matrix(0.62539845,0,0,-0.5266301,-211.81413,663.11267)"
         id="g4098">
        <path
           inkscape:connector-curvature="0"
           id="path4100"
           style="fill:#ffffff;fill-opacity:1;fill-rule:evenodd;stroke:none"
           d="M 0,0 C 0.237,0.535 0.476,1.076 0.708,1.632 1.144,2.672 1.975,3.377 3.076,3.628 4.175,3.878 5.231,3.605 6.073,2.857 7.022,2.014 8.061,1.062 9.167,0.025 7.712,-2.543 6.18,-4.974 4.578,-7.267 2.977,-4.905 1.451,-2.485 0,0" />
      </g>
      <g
         transform="matrix(0.62539845,0,0,-0.5266301,-214.62542,667.66049)"
         id="g4102">
        <path
           inkscape:connector-curvature="0"
           id="path4104"
           style="fill:#ffffff;fill-opacity:1;fill-rule:evenodd;stroke:none"
           d="M 0,0 C 1.315,2.151 2.575,4.497 3.77,7.049 5.175,4.686 6.647,2.381 8.188,0.129 6.713,-1.901 5.178,-3.818 3.587,-5.616 2.347,-3.782 1.15,-1.909 0,0" />
      </g>
      <g
         transform="matrix(0.62539845,0,0,-0.5266301,-217.7915,671.37829)"
         id="g4106">
        <path
           inkscape:connector-curvature="0"
           id="path4108"
           style="fill:#ffffff;fill-opacity:1;fill-rule:evenodd;stroke:none"
           d="M 0,0 C 1.449,1.718 2.857,3.61 4.211,5.702 5.321,3.886 6.472,2.103 7.662,0.352 6.084,-1.36 4.45,-2.96 2.768,-4.441 1.817,-2.985 0.894,-1.504 0,0" />
      </g>
      <g
         transform="matrix(0.62539845,0,0,-0.5266301,-221.44307,674.45576)"
         id="g4110">
        <path
           inkscape:connector-curvature="0"
           id="path4112"
           style="fill:#ffffff;fill-opacity:1;fill-rule:evenodd;stroke:none"
           d="M 0,0 C 1.651,1.382 3.272,2.944 4.85,4.707 5.713,3.271 6.602,1.855 7.515,0.461 5.822,-0.959 4.085,-2.265 2.297,-3.452 L 1.967,-3.26 C 1.296,-2.186 0.641,-1.099 0,0" />
      </g>
      <g
         transform="matrix(0.62539845,0,0,-0.5266301,-222.25478,675.00556)"
         id="g4114">
        <path
           inkscape:connector-curvature="0"
           id="path4116"
           style="fill:#ffffff;fill-opacity:1;fill-rule:evenodd;stroke:none"
           d="m 0,0 0.171,0.133 0.282,-0.48 C 0.301,-0.232 0.149,-0.116 0,0" />
      </g>
      <g
         transform="matrix(0.62539845,0,0,-0.5266301,-199.63537,678.50681)"
         id="g4118">
        <path
           inkscape:connector-curvature="0"
           id="path4120"
           style="fill:#2e719f;fill-opacity:1;fill-rule:evenodd;stroke:none"
           d="M 0,0 C 0.269,0.288 0.54,0.579 0.807,0.873 L 1.425,0.262 C 0.948,0.17 0.475,0.081 0,0 M 8.284,10.51 C 9.154,9.576 9.999,8.662 10.811,7.772 11.984,6.489 11.997,4.548 10.845,3.248 10.625,3.002 10.405,2.758 10.187,2.517 7.81,1.753 5.447,1.118 3.113,0.608 2.658,1.051 2.209,1.494 1.761,1.939 4.055,4.56 6.231,7.419 8.284,10.51" />
      </g>
      <g
         transform="matrix(0.62539845,0,0,-0.5266301,-228.18324,687.95065)"
         id="g4122">
        <path
           inkscape:connector-curvature="0"
           id="path4124"
           style="fill:#2e719f;fill-opacity:1;fill-rule:evenodd;stroke:none"
           d="M 0,0 C 1.944,-0.233 3.889,-0.378 5.825,-0.44 3.98,-0.235 2.163,0.064 0.376,0.455 L 0,0 Z" />
      </g>
      <g
         transform="matrix(0.62539845,0,0,-0.5266301,-234.00358,686.99256)"
         id="g4126">
        <path
           inkscape:connector-curvature="0"
           id="path4128"
           style="fill:#2e719f;fill-opacity:1;fill-rule:evenodd;stroke:none"
           d="M 0,0 C 2.529,-0.691 5.079,-1.221 7.631,-1.596 L 8.13,-1 C 5.749,-0.403 3.423,0.357 1.154,1.281 0.772,0.853 0.387,0.425 0,0" />
      </g>
      <g
         transform="matrix(0.62539845,0,0,-0.5266301,-239.485,685.34942)"
         id="g4130">
        <path
           inkscape:connector-curvature="0"
           id="path4132"
           style="fill:#2e719f;fill-opacity:1;fill-rule:evenodd;stroke:none"
           d="M 0,0 C 2.378,-1.055 4.794,-1.943 7.23,-2.679 7.668,-2.204 8.102,-1.728 8.531,-1.25 6.313,-0.272 4.156,0.86 2.06,2.146 1.382,1.426 0.695,0.711 0,0" />
      </g>
      <g
         transform="matrix(0.62539845,0,0,-0.5266301,-244.53216,683.06853)"
         id="g4134">
        <path
           inkscape:connector-curvature="0"
           id="path4136"
           style="fill:#2e719f;fill-opacity:1;fill-rule:evenodd;stroke:none"
           d="m 0,0 c 2.184,-1.392 4.418,-2.622 6.69,-3.698 0.747,0.759 1.484,1.521 2.209,2.291 C 6.876,-0.093 4.911,1.366 3.008,2.968 2.022,1.969 1.021,0.979 0,0" />
      </g>
      <g
         transform="matrix(0.62539845,0,0,-0.5266301,-249.0516,680.23173)"
         id="g4138">
        <path
           inkscape:connector-curvature="0"
           id="path4140"
           style="fill:#2e719f;fill-opacity:1;fill-rule:evenodd;stroke:none"
           d="m 0,0 c 1.944,-1.68 3.947,-3.206 5.998,-4.583 1.071,1.022 2.12,2.057 3.151,3.1 C 7.329,0.121 5.567,1.856 3.868,3.723 2.607,2.466 1.317,1.226 0,0" />
      </g>
      <g
         transform="matrix(0.62539845,0,0,-0.5266301,-251.30772,673.19627)"
         id="g4142">
        <path
           inkscape:connector-curvature="0"
           id="path4144"
           style="fill:#2e719f;fill-opacity:1;fill-rule:evenodd;stroke:none"
           d="m 0,0 c -0.871,-0.934 -1.716,-1.85 -2.528,-2.738 -1.172,-1.283 -1.185,-3.224 -0.033,-4.525 1.64,-1.847 3.341,-3.561 5.093,-5.146 1.362,1.264 2.691,2.543 3.99,3.839 C 4.229,-5.952 2.053,-3.092 0,0" />
      </g>
      <g
         transform="matrix(0.62539845,0,0,-0.5266301,-209.22097,686.18154)"
         id="g4146">
        <path
           inkscape:connector-curvature="0"
           id="path4148"
           style="fill:#5aa0dc;fill-opacity:1;fill-rule:evenodd;stroke:none"
           d="M 0,0 C 0.521,0.154 1.044,0.313 1.567,0.479 1.088,0.378 0.612,0.281 0.136,0.19 L 0,0 Z" />
      </g>
      <g
         transform="matrix(0.62539845,0,0,-0.5266301,-216.11618,687.40912)"
         id="g4150">
        <path
           inkscape:connector-curvature="0"
           id="path4152"
           style="fill:#5aa0dc;fill-opacity:1;fill-rule:evenodd;stroke:none"
           d="M 0,0 C 2.885,0.357 5.826,0.93 8.82,1.715 L 9.149,2.166 C 6.391,1.723 3.68,1.468 1.02,1.393 0.682,0.927 0.342,0.462 0,0" />
      </g>
      <g
         transform="matrix(0.62539845,0,0,-0.5266301,-221.80712,687.63541)"
         id="g4154">
        <path
           inkscape:connector-curvature="0"
           id="path4156"
           style="fill:#5aa0dc;fill-opacity:1;fill-rule:evenodd;stroke:none"
           d="M 0,0 C 2.343,-0.074 4.73,-0.004 7.156,0.22 7.553,0.743 7.946,1.271 8.335,1.801 6.079,1.807 3.859,1.946 1.68,2.217 1.129,1.473 0.568,0.734 0,0" />
      </g>
      <g
         transform="matrix(0.62539845,0,0,-0.5266301,-227.34715,687.09235)"
         id="g4158">
        <path
           inkscape:connector-curvature="0"
           id="path4160"
           style="fill:#5aa0dc;fill-opacity:1;fill-rule:evenodd;stroke:none"
           d="M 0,0 C 2.32,-0.472 4.691,-0.791 7.113,-0.946 7.726,-0.168 8.33,0.618 8.924,1.41 6.659,1.762 4.438,2.255 2.267,2.888 1.525,1.916 0.77,0.954 0,0" />
      </g>
      <g
         transform="matrix(0.62539845,0,0,-0.5266301,-232.68986,685.7526)"
         id="g4162">
        <path
           inkscape:connector-curvature="0"
           id="path4164"
           style="fill:#5aa0dc;fill-opacity:1;fill-rule:evenodd;stroke:none"
           d="M 0,0 C 2.27,-0.898 4.599,-1.633 6.984,-2.198 7.788,-1.212 8.578,-0.217 9.353,0.791 8.049,1.214 6.762,1.687 5.494,2.211 4.606,2.577 3.729,2.969 2.86,3.385 L 2.598,3.066 C 1.749,2.033 0.883,1.011 0,0" />
      </g>
      <g
         transform="matrix(0.62539845,0,0,-0.5266301,-237.61062,683.68879)"
         id="g4166">
        <path
           inkscape:connector-curvature="0"
           id="path4168"
           style="fill:#5aa0dc;fill-opacity:1;fill-rule:evenodd;stroke:none"
           d="m 0,0 c 2.098,-1.272 4.258,-2.387 6.476,-3.343 0.983,1.119 1.946,2.251 2.887,3.397 L 9.415,0.116 C 7.332,1.183 5.304,2.394 3.334,3.745 2.25,2.48 1.138,1.233 0,0" />
      </g>
      <g
         transform="matrix(0.62539845,0,0,-0.5266301,-242.05983,680.99598)"
         id="g4170">
        <path
           inkscape:connector-curvature="0"
           id="path4172"
           style="fill:#5aa0dc;fill-opacity:1;fill-rule:evenodd;stroke:none"
           d="m 0,0 c 1.899,-1.593 3.86,-3.042 5.882,-4.342 1.158,1.25 2.289,2.517 3.393,3.799 C 7.367,0.837 5.516,2.35 3.722,3.993 2.512,2.644 1.271,1.313 0,0" />
      </g>
      <g
         transform="matrix(0.62539845,0,0,-0.5266301,-246.03637,677.76679)"
         id="g4174">
        <path
           inkscape:connector-curvature="0"
           id="path4176"
           style="fill:#5aa0dc;fill-opacity:1;fill-rule:evenodd;stroke:none"
           d="m 0,0 c 1.696,-1.865 3.455,-3.6 5.272,-5.199 1.287,1.328 2.541,2.672 3.766,4.035 C 7.298,0.502 5.614,2.296 3.993,4.211 2.695,2.787 1.365,1.384 0,0" />
      </g>
      <g
         transform="matrix(0.62539845,0,0,-0.5266301,-248.22714,670.33377)"
         id="g4178">
        <path
           inkscape:connector-curvature="0"
           id="path4180"
           style="fill:#5aa0dc;fill-opacity:1;fill-rule:evenodd;stroke:none"
           d="m 0,0 c -1.385,-1.566 -2.749,-3.13 -4.063,-4.654 2.186,-3.026 4.489,-5.805 6.898,-8.331 1.313,1.455 2.592,2.929 3.834,4.423 C 4.338,-5.945 2.113,-3.089 0,0" />
      </g>
      <g
         transform="matrix(0.62539845,0,0,-0.5266301,-201.52132,683.21304)"
         id="g4182">
        <path
           inkscape:connector-curvature="0"
           id="path4184"
           style="fill:#1a3048;fill-opacity:1;fill-rule:evenodd;stroke:none"
           d="M 0,0 0.22,0.134 0.061,0.094 0,0 Z" />
      </g>
      <g
         transform="matrix(0.62539845,0,0,-0.5266301,-208.43491,685.23577)"
         id="g4186">
        <path
           inkscape:connector-curvature="0"
           id="path4188"
           style="fill:#1a3048;fill-opacity:1;fill-rule:evenodd;stroke:none"
           d="m 0,0 c 1.957,0.418 3.938,0.93 5.942,1.536 l 1.23,1.476 C 5.228,2.614 3.304,2.308 1.404,2.093 0.942,1.391 0.474,0.693 0,0" />
      </g>
      <g
         transform="matrix(0.62539845,0,0,-0.5266301,-214.85994,685.94393)"
         id="g4190">
        <path
           inkscape:connector-curvature="0"
           id="path4192"
           style="fill:#1a3048;fill-opacity:1;fill-rule:evenodd;stroke:none"
           d="M 0,0 C 2.699,0.124 5.452,0.438 8.256,0.947 8.792,1.71 9.321,2.48 9.841,3.255 7.219,3.036 4.644,2.99 2.116,3.113 1.427,2.064 0.719,1.026 0,0" />
      </g>
      <g
         transform="matrix(0.62539845,0,0,-0.5266301,-220.18252,685.80764)"
         id="g4194">
        <path
           inkscape:connector-curvature="0"
           id="path4196"
           style="fill:#1a3048;fill-opacity:1;fill-rule:evenodd;stroke:none"
           d="M 0,0 C 2.198,-0.241 4.44,-0.347 6.722,-0.312 7.489,0.766 8.243,1.856 8.981,2.959 6.84,3.128 4.736,3.42 2.671,3.833 1.804,2.538 0.912,1.261 0,0" />
      </g>
      <g
         transform="matrix(0.62539845,0,0,-0.5266301,-225.3854,684.96371)"
         id="g4198">
        <path
           inkscape:connector-curvature="0"
           id="path4200"
           style="fill:#1a3048;fill-opacity:1;fill-rule:evenodd;stroke:none"
           d="M 0,0 C 2.185,-0.612 4.419,-1.081 6.7,-1.401 7.652,-0.102 8.582,1.218 9.486,2.556 7.338,3.052 5.23,3.682 3.173,4.44 2.146,2.938 1.089,1.458 0,0" />
      </g>
      <g
         transform="matrix(0.62539845,0,0,-0.5266301,-230.35563,683.40231)"
         id="g4202">
        <path
           inkscape:connector-curvature="0"
           id="path4204"
           style="fill:#1a3048;fill-opacity:1;fill-rule:evenodd;stroke:none"
           d="m 0,0 c 0.752,-0.354 1.51,-0.689 2.274,-1.006 1.382,-0.57 2.788,-1.079 4.213,-1.526 1.12,1.488 2.206,2.999 3.262,4.535 L 9.252,2.206 C 7.367,2.984 5.523,3.874 3.723,4.874 2.52,3.222 1.279,1.598 0,0" />
      </g>
      <g
         transform="matrix(0.62539845,0,0,-0.5266301,-234.97526,681.17234)"
         id="g4206">
        <path
           inkscape:connector-curvature="0"
           id="path4208"
           style="fill:#1a3048;fill-opacity:1;fill-rule:evenodd;stroke:none"
           d="M 0,0 C 1.966,-1.341 3.99,-2.539 6.072,-3.592 7.376,-1.973 8.637,-0.324 9.86,1.354 7.909,2.505 6.008,3.788 4.162,5.198 3.133,3.844 2.076,2.51 0.993,1.193 0.664,0.794 0.333,0.396 0,0" />
      </g>
      <g
         transform="matrix(0.62539845,0,0,-0.5266301,-239.17105,678.3623)"
         id="g4210">
        <path
           inkscape:connector-curvature="0"
           id="path4212"
           style="fill:#1a3048;fill-opacity:1;fill-rule:evenodd;stroke:none"
           d="m 0,0 c 1.787,-1.639 3.632,-3.145 5.534,-4.515 0.358,0.425 0.713,0.852 1.065,1.278 1.075,1.308 2.124,2.635 3.147,3.979 C 7.953,2.18 6.215,3.74 4.533,5.421 4.031,4.788 3.523,4.158 3.01,3.534 2.028,2.342 1.025,1.164 0,0" />
      </g>
      <g
         transform="matrix(0.62539845,0,0,-0.5266301,-242.96922,675.01635)"
         id="g4214">
        <path
           inkscape:connector-curvature="0"
           id="path4216"
           style="fill:#1a3048;fill-opacity:1;fill-rule:evenodd;stroke:none"
           d="m 0,0 c 1.617,-1.92 3.295,-3.712 5.031,-5.376 1.005,1.141 1.988,2.295 2.948,3.464 0.547,0.664 1.087,1.333 1.62,2.006 C 7.936,1.826 6.33,3.677 4.782,5.646 4.419,5.191 4.051,4.74 3.68,4.289 2.485,2.838 1.26,1.408 0,0" />
      </g>
      <g
         transform="matrix(0.62539845,0,0,-0.5266301,-244.10276,666.93227)"
         id="g4218">
        <path
           inkscape:connector-curvature="0"
           id="path4220"
           style="fill:#1a3048;fill-opacity:1;fill-rule:evenodd;stroke:none"
           d="m 0,0 c -1.759,-1.752 -3.559,-3.576 -5.34,-5.41 1.956,-3.174 4.037,-6.118 6.233,-8.827 1.196,1.343 2.362,2.702 3.496,4.083 0.441,0.535 0.876,1.073 1.308,1.614 C 3.693,-5.893 1.793,-3.044 0,0" />
      </g>
      <g
         transform="matrix(0.62539845,0,0,-0.5266301,-200.8043,682.26984)"
         id="g4222">
        <path
           inkscape:connector-curvature="0"
           id="path4224"
           style="fill:#151c21;fill-opacity:1;fill-rule:evenodd;stroke:none"
           d="M 0,0 C 0.922,0.262 1.85,0.545 2.782,0.849 3.756,1.567 4.693,2.313 5.595,3.082 4.146,2.702 2.712,2.371 1.287,2.089 0.864,1.387 0.436,0.691 0,0" />
      </g>
      <g
         transform="matrix(0.62539845,0,0,-0.5266301,-206.95572,683.35502)"
         id="g4226">
        <path
           inkscape:connector-curvature="0"
           id="path4228"
           style="fill:#151c21;fill-opacity:1;fill-rule:evenodd;stroke:none"
           d="M 0,0 C 2.043,0.271 4.115,0.645 6.214,1.128 L 8.321,3.654 C 6.134,3.317 3.979,3.096 1.854,2.99 1.246,1.982 0.631,0.986 0,0" />
      </g>
      <g
         transform="matrix(0.62539845,0,0,-0.5266301,-212.99957,683.61059)"
         id="g4230">
        <path
           inkscape:connector-curvature="0"
           id="path4232"
           style="fill:#151c21;fill-opacity:1;fill-rule:evenodd;stroke:none"
           d="M 0,0 C 2.556,-0.088 5.166,0.002 7.822,0.271 8.498,1.308 9.158,2.355 9.806,3.414 7.265,3.362 4.768,3.477 2.322,3.755 1.568,2.486 0.795,1.236 0,0" />
      </g>
      <g
         transform="matrix(0.62539845,0,0,-0.5266301,-218.00645,683.14721)"
         id="g4234">
        <path
           inkscape:connector-curvature="0"
           id="path4236"
           style="fill:#151c21;fill-opacity:1;fill-rule:evenodd;stroke:none"
           d="M 0,0 C 2.077,-0.393 4.197,-0.66 6.354,-0.799 7.185,0.475 7.992,1.766 8.779,3.074 6.716,3.37 4.689,3.784 2.702,4.313 1.826,2.854 0.926,1.417 0,0" />
      </g>
      <g
         transform="matrix(0.62539845,0,0,-0.5266301,-222.91495,682.01838)"
         id="g4238">
        <path
           inkscape:connector-curvature="0"
           id="path4240"
           style="fill:#151c21;fill-opacity:1;fill-rule:evenodd;stroke:none"
           d="M 0,0 C 2.065,-0.747 4.18,-1.359 6.339,-1.835 7.295,-0.39 8.222,1.079 9.121,2.571 7.402,3.083 5.713,3.681 4.057,4.364 3.72,4.504 3.386,4.647 3.051,4.794 2.066,3.169 1.05,1.571 0,0" />
      </g>
      <g
         transform="matrix(0.62539845,0,0,-0.5266301,-227.53095,680.25538)"
         id="g4242">
        <path
           inkscape:connector-curvature="0"
           id="path4244"
           style="fill:#151c21;fill-opacity:1;fill-rule:evenodd;stroke:none"
           d="m 0,0 c 1.711,-0.942 3.46,-1.785 5.248,-2.523 0.253,-0.105 0.507,-0.206 0.76,-0.306 1.07,1.595 2.107,3.219 3.111,4.87 C 7.188,2.949 5.305,3.979 3.468,5.124 2.351,3.386 1.194,1.678 0,0" />
      </g>
      <g
         transform="matrix(0.62539845,0,0,-0.5266301,-231.8654,677.86758)"
         id="g4246">
        <path
           inkscape:connector-curvature="0"
           id="path4248"
           style="fill:#151c21;fill-opacity:1;fill-rule:evenodd;stroke:none"
           d="M 0,0 C 1.84,-1.405 3.734,-2.681 5.681,-3.823 6.892,-2.126 8.062,-0.398 9.193,1.363 7.346,2.581 5.549,3.922 3.804,5.381 2.58,3.553 1.312,1.761 0,0" />
      </g>
      <g
         transform="matrix(0.62539845,0,0,-0.5266301,-235.81135,674.94489)"
         id="g4250">
        <path
           inkscape:connector-curvature="0"
           id="path4252"
           style="fill:#151c21;fill-opacity:1;fill-rule:evenodd;stroke:none"
           d="M 0,0 C 1.674,-1.68 3.402,-3.236 5.187,-4.668 6.508,-2.892 7.786,-1.08 9.019,0.767 7.324,2.25 5.68,3.849 4.089,5.558 2.774,3.67 1.411,1.817 0,0" />
      </g>
      <g
         transform="matrix(0.62539845,0,0,-0.5266301,-239.43854,671.46929)"
         id="g4254">
        <path
           inkscape:connector-curvature="0"
           id="path4256"
           style="fill:#151c21;fill-opacity:1;fill-rule:evenodd;stroke:none"
           d="M 0,0 C 1.539,-1.978 3.139,-3.832 4.794,-5.566 6.213,-3.734 7.581,-1.865 8.901,0.043 7.302,1.833 5.757,3.74 4.271,5.761 2.899,3.801 1.476,1.883 0,0" />
      </g>
      <g
         transform="matrix(0.62539845,0,0,-0.5266301,-240.31435,663.82547)"
         id="g4258">
        <path
           inkscape:connector-curvature="0"
           id="path4260"
           style="fill:#151c21;fill-opacity:1;fill-rule:evenodd;stroke:none"
           d="m 0,0 c -1.594,-1.511 -3.304,-3.172 -5.068,-4.917 1.755,-3.003 3.614,-5.813 5.572,-8.426 1.481,1.9 2.908,3.837 4.282,5.817 C 3.113,-5.163 1.516,-2.653 0,0" />
      </g>
      <g
         transform="matrix(0.62539845,0,0,-0.5266301,-233.94798,663.33738)"
         id="g4262">
        <path
           inkscape:connector-curvature="0"
           id="path4264"
           style="fill:#ffffff;fill-opacity:1;fill-rule:evenodd;stroke:none"
           d="M 0,0 C -0.239,0.536 -0.477,1.076 -0.708,1.632 -1.144,2.672 -1.977,3.377 -3.076,3.627 -4.175,3.877 -5.231,3.605 -6.074,2.857 -7.022,2.015 -8.063,1.062 -9.169,0.025 -7.713,-2.543 -6.181,-4.974 -4.578,-7.266 -2.979,-4.905 -1.453,-2.485 0,0" />
      </g>
      <g
         transform="matrix(0.62539845,0,0,-0.5266301,-231.13675,667.88526)"
         id="g4266">
        <path
           inkscape:connector-curvature="0"
           id="path4268"
           style="fill:#ffffff;fill-opacity:1;fill-rule:evenodd;stroke:none"
           d="M 0,0 C -1.315,2.151 -2.575,4.497 -3.77,7.049 -5.176,4.687 -6.648,2.381 -8.19,0.129 -6.714,-1.901 -5.179,-3.817 -3.589,-5.615 -2.347,-3.781 -1.151,-1.909 0,0" />
      </g>
      <g
         transform="matrix(0.62539845,0,0,-0.5266301,-227.97067,671.603)"
         id="g4270">
        <path
           inkscape:connector-curvature="0"
           id="path4272"
           style="fill:#ffffff;fill-opacity:1;fill-rule:evenodd;stroke:none"
           d="m 0,0 c -1.449,1.718 -2.857,3.61 -4.212,5.702 -1.11,-1.816 -2.262,-3.6 -3.452,-5.35 1.579,-1.712 3.213,-3.311 4.895,-4.794 C -1.818,-2.984 -0.896,-1.504 0,0" />
      </g>
      <g
         transform="matrix(0.62539845,0,0,-0.5266301,-224.31966,674.68052)"
         id="g4274">
        <path
           inkscape:connector-curvature="0"
           id="path4276"
           style="fill:#ffffff;fill-opacity:1;fill-rule:evenodd;stroke:none"
           d="M 0,0 C -1.651,1.382 -3.273,2.944 -4.851,4.707 -5.712,3.271 -6.601,1.855 -7.514,0.461 -5.777,-0.998 -3.988,-2.337 -2.148,-3.551 -1.415,-2.382 -0.699,-1.199 0,0" />
      </g>
      <g
         transform="matrix(0.62539845,0,0,-0.5266301,-220.32423,677.00765)"
         id="g4278">
        <path
           inkscape:connector-curvature="0"
           id="path4280"
           style="fill:#ffffff;fill-opacity:1;fill-rule:evenodd;stroke:none"
           d="M 0,0 C -1.772,0.994 -3.532,2.157 -5.263,3.508 -5.937,2.358 -6.627,1.22 -7.333,0.097 -5.504,-1.044 -3.628,-2.065 -1.706,-2.964 -1.125,-1.985 -0.557,-0.998 0,0" />
      </g>
      <g
         transform="matrix(0.62539845,0,0,-0.5266301,-215.83713,678.67296)"
         id="g4282">
        <path
           inkscape:connector-curvature="0"
           id="path4284"
           style="fill:#ffffff;fill-opacity:1;fill-rule:evenodd;stroke:none"
           d="m 0,0 c -1.968,0.65 -3.948,1.47 -5.914,2.484 -0.54,-0.968 -1.092,-1.928 -1.655,-2.877 0.274,-0.118 0.547,-0.234 0.821,-0.347 1.721,-0.711 3.476,-1.325 5.267,-1.844 C -0.979,-1.73 -0.485,-0.868 0,0" />
      </g>
      <g
         transform="matrix(0.62539845,0,0,-0.5266301,-211.17778,679.58477)"
         id="g4286">
        <path
           inkscape:connector-curvature="0"
           id="path4288"
           style="fill:#ffffff;fill-opacity:1;fill-rule:evenodd;stroke:none"
           d="M 0,0 C -1.983,0.282 -4.01,0.705 -6.053,1.299 -6.528,0.444 -7.01,-0.403 -7.502,-1.243 -5.506,-1.759 -3.467,-2.155 -1.39,-2.43 -0.919,-1.627 -0.455,-0.816 0,0" />
      </g>
      <g
         transform="matrix(0.62539845,0,0,-0.5266301,-205.46671,679.80695)"
         id="g4290">
        <path
           inkscape:connector-curvature="0"
           id="path4292"
           style="fill:#ffffff;fill-opacity:1;fill-rule:evenodd;stroke:none"
           d="M 0,0 C -2.407,-0.103 -4.959,-0.054 -7.602,0.231 -8.051,-0.582 -8.507,-1.39 -8.971,-2.188 -6.502,-2.44 -3.98,-2.522 -1.409,-2.432 -0.933,-1.628 -0.462,-0.817 0,0" />
      </g>
      <g
         transform="matrix(0.62539845,0,0,-0.5266301,-199.67871,679.21397)"
         id="g4294">
        <path
           inkscape:connector-curvature="0"
           id="path4296"
           style="fill:#ffffff;fill-opacity:1;fill-rule:evenodd;stroke:none"
           d="m 0,0 c -2.217,-0.436 -4.772,-0.827 -7.562,-1.03 -0.455,-0.821 -0.918,-1.634 -1.39,-2.441 2.286,0.149 4.607,0.433 6.967,0.856 l 1.56,1.871 L 0,0 Z" />
      </g>
      <g
         transform="matrix(0.62539845,0,0,-0.5266301,-194.34268,678.17203)"
         id="g4298">
        <path
           inkscape:connector-curvature="0"
           id="path4300"
           style="fill:#ffffff;fill-opacity:1;fill-rule:evenodd;stroke:none"
           d="M 0,0 C -0.582,0.029 -2.761,-0.687 -6.029,-1.443 L -7.77,-3.528 -8.11,-4.117 c 1.845,0.4 3.714,0.884 5.6,1.452 C -1.625,-1.802 -0.788,-0.912 0,0" />
      </g>
    </g>
  </g>
  <g
     inkscape:groupmode="layer"
     id="layer3"
     inkscape:label="PLACE YOUR PICTOGRAM HERE"
     style="display:inline" />
  <g
     inkscape:groupmode="layer"
     id="layer2"
     inkscape:label="BADGE"
     style="display:none"
     sodipodi:insensitive="true">
    <g
       style="display:inline"
       transform="translate(-340.00001,-581)"
       id="g4394"
       clip-path="none">
      <g
         id="g855">
        <g
           inkscape:groupmode="maskhelper"
           id="g870"
           clip-path="url(#clipPath873)"
           style="opacity:0.6;filter:url(#filter891)">
          <path
             transform="matrix(1.4999992,0,0,1.4999992,-29.999795,-237.54282)"
             d="m 264,552.36218 a 12,12 0 0 1 -12,12 12,12 0 0 1 -12,-12 12,12 0 0 1 12,-12 12,12 0 0 1 12,12 z"
             sodipodi:ry="12"
             sodipodi:rx="12"
             sodipodi:cy="552.36218"
             sodipodi:cx="252"
             id="path844"
             style="color:#000000;fill:#000000;fill-opacity:1;fill-rule:nonzero;stroke:none;stroke-width:4;marker:none;visibility:visible;display:inline;overflow:visible;enable-background:accumulate"
             sodipodi:type="arc" />
        </g>
        <g
           id="g862">
          <path
             sodipodi:type="arc"
             style="color:#000000;fill:#f5f5f5;fill-opacity:1;fill-rule:nonzero;stroke:none;stroke-width:4;marker:none;visibility:visible;display:inline;overflow:visible;enable-background:accumulate"
             id="path4398"
             sodipodi:cx="252"
             sodipodi:cy="552.36218"
             sodipodi:rx="12"
             sodipodi:ry="12"
             d="m 264,552.36218 a 12,12 0 0 1 -12,12 12,12 0 0 1 -12,-12 12,12 0 0 1 12,-12 12,12 0 0 1 12,12 z"
             transform="matrix(1.4999992,0,0,1.4999992,-29.999795,-238.54282)" />
          <path
             transform="matrix(1.25,0,0,1.25,33,-100.45273)"
             d="m 264,552.36218 a 12,12 0 0 1 -12,12 12,12 0 0 1 -12,-12 12,12 0 0 1 12,-12 12,12 0 0 1 12,12 z"
             sodipodi:ry="12"
             sodipodi:rx="12"
             sodipodi:cy="552.36218"
             sodipodi:cx="252"
             id="path4400"
             style="color:#000000;fill:#dd4814;fill-opacity:1;fill-rule:nonzero;stroke:none;stroke-width:4;marker:none;visibility:visible;display:inline;overflow:visible;enable-background:accumulate"
             sodipodi:type="arc" />
          <path
             sodipodi:type="star"
             style="color:#000000;fill:#f5f5f5;fill-opacity:1;fill-rule:nonzero;stroke:none;stroke-width:3;marker:none;visibility:visible;display:inline;overflow:visible;enable-background:accumulate"
             id="path4459"
             sodipodi:sides="5"
             sodipodi:cx="666.19574"
             sodipodi:cy="589.50385"
             sodipodi:r1="7.2431178"
             sodipodi:r2="4.3458705"
             sodipodi:arg1="1.0471976"
             sodipodi:arg2="1.6755161"
             inkscape:flatsided="false"
             inkscape:rounded="0.1"
             inkscape:randomized="0"
             d="m 669.8173,595.77657 c -0.39132,0.22593 -3.62645,-1.90343 -4.07583,-1.95066 -0.44938,-0.0472 -4.05653,1.36297 -4.39232,1.06062 -0.3358,-0.30235 0.68963,-4.03715 0.59569,-4.47913 -0.0939,-0.44198 -2.5498,-3.43681 -2.36602,-3.8496 0.18379,-0.41279 4.05267,-0.59166 4.44398,-0.81759 0.39132,-0.22593 2.48067,-3.48704 2.93005,-3.4398 0.44938,0.0472 1.81505,3.67147 2.15084,3.97382 0.3358,0.30236 4.08294,1.2817 4.17689,1.72369 0.0939,0.44198 -2.9309,2.86076 -3.11469,3.27355 -0.18379,0.41279 0.0427,4.27917 -0.34859,4.5051 z"
             transform="matrix(1.511423,-0.16366377,0.16366377,1.511423,-755.37346,-191.93651)" />
        </g>
      </g>
    </g>
  </g>
</svg>
